<svg width="36" height="36" viewBox="0 0 36 36" fill="none" xmlns="http://www.w3.org/2000/svg">
<path d="M15 12.804L9.80382 15.804C6.93294 17.4615 5.95017 21.1292 7.60767 24.0001C9.26517 26.871 12.9329 27.8538 15.8038 26.1963L21 23.1963L15 12.804Z" fill="#197457"/>
<path d="M15 12.804L20.1962 9.80396C23.067 8.14645 26.7348 9.12923 28.3923 12.0001C30.0498 14.871 29.067 18.5388 26.1962 20.1963L21 23.1963L15 12.804Z" fill="white"/>
<path d="M20.1961 9.80396L9.80382 15.804C6.93406 17.4608 5.95081 21.1304 7.60767 24.0001C9.26452 26.8699 12.9341 27.8531 15.8038 26.1963L26.1961 20.1963C29.0659 18.5394 30.0491 14.8699 28.3923 12.0001C26.7354 9.13035 23.0659 8.1471 20.1961 9.80396Z" stroke="#197457" stroke-width="0.9"/>
<path d="M15 12.804L21 23.1963" stroke="#197457" stroke-width="0.9"/>
</svg>
